<svg width="198" height="217" viewBox="0 0 198 217" fill="none" xmlns="http://www.w3.org/2000/svg">
<path d="M83.3081 157.199C74.2078 161.832 65.6945 167.578 58.9447 175.808C60.584 168.749 61.2533 161.464 61.4359 154.11C61.6416 145.833 61.2274 137.197 60.8152 128.601C60.6791 125.763 60.5432 122.929 60.4299 120.114C59.5034 97.098 60.0353 74.2979 72.3919 52.8957C87.0896 27.4385 119.601 18.7313 145.029 33.4123L145.04 33.4184C170.463 48.0964 179.182 80.6117 164.486 106.066C152.263 127.236 133.252 136.529 113.104 144.624C110.899 145.511 108.666 146.388 106.423 147.269C98.5811 150.349 90.6199 153.476 83.3081 157.199Z" fill="#FFD601" stroke="black" stroke-width="10"/>
<circle cx="137.494" cy="67.2501" r="13" fill="black"/>
<circle cx="142.994" cy="69.7501" r="4.5" fill="white"/>
<rect x="71.2667" y="65.4928" width="98.9832" height="11.7217" transform="rotate(30 71.2667 65.4928)" fill="black"/>
<rect x="64.2329" y="89.2086" width="85.1981" height="11.7217" transform="rotate(30 64.2329 89.2086)" fill="black"/>
<rect x="57.3333" y="110.624" width="63.9512" height="11.7217" transform="rotate(30 57.3333 110.624)" fill="black"/>
<path d="M60.4791 102.55C60.659 104.375 60.9152 106.195 61.2211 108.003C62.0387 112.833 63.2739 117.874 64.4841 122.814C64.8683 124.382 65.2499 125.939 65.6149 127.477C68.7364 140.625 70.8288 153.122 66.4424 165.173C61.332 179.214 45.8276 186.44 31.8053 181.337L31.799 181.334C17.7798 176.232 10.5453 160.727 15.6551 146.688C20.0418 134.636 29.6775 126.408 40.521 118.343C41.7892 117.399 43.0834 116.451 44.3861 115.497C48.4877 112.491 52.6744 109.424 56.4052 106.25C57.8015 105.062 59.168 103.832 60.4791 102.55Z" fill="white" stroke="black" stroke-width="10"/>
</svg>
